<?xml version="1.0" encoding="UTF-8" standalone="no"?>
<!-- Created with Inkscape (http://www.inkscape.org/) -->

<svg
   xmlns:dc="http://purl.org/dc/elements/1.1/"
   xmlns:cc="http://creativecommons.org/ns#"
   xmlns:rdf="http://www.w3.org/1999/02/22-rdf-syntax-ns#"
   xmlns:svg="http://www.w3.org/2000/svg"
   xmlns="http://www.w3.org/2000/svg"
   xmlns:sodipodi="http://sodipodi.sourceforge.net/DTD/sodipodi-0.dtd"
   xmlns:inkscape="http://www.inkscape.org/namespaces/inkscape"
   width="224.23912mm"
   height="224.23912mm"
   viewBox="0 0 224.23912 224.23912"
   version="1.1"
   id="svg8"
   inkscape:version="0.92.1 r15371"
   sodipodi:docname="mic.svg">
  <defs
     id="defs2" />
  <sodipodi:namedview
     id="base"
     pagecolor="#ffffff"
     bordercolor="#666666"
     borderopacity="1.0"
     inkscape:pageopacity="0.0"
     inkscape:pageshadow="2"
     inkscape:zoom="0.98994949"
     inkscape:cx="156.74859"
     inkscape:cy="416.65175"
     inkscape:document-units="mm"
     inkscape:current-layer="layer1"
     showgrid="false"
     inkscape:window-width="3440"
     inkscape:window-height="1377"
     inkscape:window-x="1072"
     inkscape:window-y="165"
     inkscape:window-maximized="1" />
  <metadata
     id="metadata5">
    <rdf:RDF>
      <cc:Work
         rdf:about="">
        <dc:format>image/svg+xml</dc:format>
        <dc:type
           rdf:resource="http://purl.org/dc/dcmitype/StillImage" />
        <dc:title></dc:title>
      </cc:Work>
    </rdf:RDF>
  </metadata>
  <g
     inkscape:label="Layer 1"
     inkscape:groupmode="layer"
     id="layer1"
     transform="translate(8.5526123,-32.403175)">
    <circle
       style="opacity:1;fill:#4783b2;fill-opacity:1;stroke:none;stroke-width:1.57436466;stroke-linecap:round;stroke-miterlimit:4;stroke-dasharray:none;stroke-opacity:1;paint-order:fill markers stroke"
       id="path4559"
       cx="103.56695"
       cy="144.52274"
       r="112.11956" />
    <g
       id="g4555"
       transform="matrix(0.26458333,0,0,0.26458333,45.993615,86.949403)"
       style="fill:#ffffff;fill-opacity:1">
      <g
         id="g4489"
         style="fill:#ffffff;fill-opacity:1">
        <g
           id="g4487"
           style="fill:#ffffff;fill-opacity:1">
          <path
             id="path4485"
             d="m 356.864,224.768 c 0,-8.704 -6.656,-15.36 -15.36,-15.36 -8.704,0 -15.36,6.656 -15.36,15.36 0,59.904 -48.64,108.544 -108.544,108.544 -59.904,0 -108.544,-48.64 -108.544,-108.544 0,-8.704 -6.656,-15.36 -15.36,-15.36 -8.704,0 -15.36,6.656 -15.36,15.36 0,71.168 53.248,131.072 123.904,138.752 v 40.96 h -55.808 c -8.704,0 -15.36,6.656 -15.36,15.36 0,8.704 6.656,15.36 15.36,15.36 h 142.336 c 8.704,0 15.36,-6.656 15.36,-15.36 0,-8.704 -6.656,-15.36 -15.36,-15.36 H 232.96 v -40.96 c 70.656,-7.68 123.904,-67.584 123.904,-138.752 z"
             inkscape:connector-curvature="0"
             style="fill:#ffffff;fill-opacity:1" />
        </g>
      </g>
      <g
         id="g4495"
         style="fill:#ffffff;fill-opacity:1">
        <g
           id="g4493"
           style="fill:#ffffff;fill-opacity:1">
          <path
             id="path4491"
             d="m 217.6,0 c -47.104,0 -85.504,38.4 -85.504,85.504 v 138.752 c 0,47.616 38.4,85.504 85.504,86.016 47.104,0 85.504,-38.4 85.504,-85.504 V 85.504 C 303.104,38.4 264.704,0 217.6,0 Z"
             inkscape:connector-curvature="0"
             style="fill:#ffffff;fill-opacity:1" />
        </g>
      </g>
      <g
         id="g4497"
         style="fill:#ffffff;fill-opacity:1" />
      <g
         id="g4499"
         style="fill:#ffffff;fill-opacity:1" />
      <g
         id="g4501"
         style="fill:#ffffff;fill-opacity:1" />
      <g
         id="g4503"
         style="fill:#ffffff;fill-opacity:1" />
      <g
         id="g4505"
         style="fill:#ffffff;fill-opacity:1" />
      <g
         id="g4507"
         style="fill:#ffffff;fill-opacity:1" />
      <g
         id="g4509"
         style="fill:#ffffff;fill-opacity:1" />
      <g
         id="g4511"
         style="fill:#ffffff;fill-opacity:1" />
      <g
         id="g4513"
         style="fill:#ffffff;fill-opacity:1" />
      <g
         id="g4515"
         style="fill:#ffffff;fill-opacity:1" />
      <g
         id="g4517"
         style="fill:#ffffff;fill-opacity:1" />
      <g
         id="g4519"
         style="fill:#ffffff;fill-opacity:1" />
      <g
         id="g4521"
         style="fill:#ffffff;fill-opacity:1" />
      <g
         id="g4523"
         style="fill:#ffffff;fill-opacity:1" />
      <g
         id="g4525"
         style="fill:#ffffff;fill-opacity:1" />
    </g>
  </g>
</svg>
